<svg width="79" height="16" viewBox="0 0 79 16" fill="none" xmlns="http://www.w3.org/2000/svg">
<g clip-path="url(#clip0_42_16)">
<path d="M0 10.6849H4.3056C4.3056 11.7613 5.1363 12.2878 6.0957 12.2878C6.9732 12.2878 7.8039 11.8198 7.8039 11.0008C7.8039 10.0531 6.6222 9.7723 5.1831 9.4213C2.9952 8.8831 0.1989 8.2045 0.1989 4.7647C0.1989 1.7812 2.3868 0.072998 5.9553 0.072998C9.5823 0.072998 11.6649 1.9333 11.6649 5.0104H7.488C7.488 4.051 6.7743 3.6064 5.9085 3.6064C5.1714 3.6064 4.4577 3.934 4.4577 4.636C4.4577 5.4901 5.6043 5.7826 7.02 6.1336C9.243 6.7069 12.1563 7.4557 12.1563 10.9072C12.1563 14.2183 9.6174 15.9265 6.0957 15.9265C2.3985 15.9499 0 13.9843 0 10.6849Z" fill="white"/>
<path d="M21.6622 15.5697L17.3215 8.87733V15.5697H13.1563V0.429932H17.3215V6.80643L21.3229 0.429932H26.155L21.3112 7.76583L26.6113 15.5697H21.6622Z" fill="white"/>
<path fill-rule="evenodd" clip-rule="evenodd" d="M35.9417 0.0439453V3.92835C33.6485 3.94005 31.9637 5.64825 31.952 7.99995C31.952 10.3516 33.6485 12.0598 35.9417 12.0715V15.9559C31.0745 15.9442 27.6113 12.6214 27.6113 7.99995C27.6113 3.37845 31.0862 0.0556453 35.9417 0.0439453ZM44.7987 12.0715C47.1035 12.0598 48.7883 10.3516 48.7883 7.99995C48.7883 5.64828 47.1035 3.94009 44.7987 3.92835V3.94007H35.9418V0.0556641H44.7986V0.0439453C49.6658 0.0556453 53.129 3.37845 53.129 7.99995C53.129 12.6214 49.6541 15.9442 44.7986 15.9559V12.0715C44.7986 12.0715 44.7986 12.0715 44.7987 12.0715ZM44.7987 12.0715H35.9418V15.9559L44.7986 15.9559" fill="white"/>
<path d="M63.7464 11.7555V15.5697H54.129V0.429932H58.3644V11.7438H63.7464V11.7555Z" fill="white"/>
<path d="M78.6927 7.98813C78.6927 12.4107 75.4518 15.5697 70.8771 15.5697H64.7463V0.429932H70.8771C75.4518 0.429932 78.6927 3.56553 78.6927 7.98813ZM74.4105 7.98813C74.4105 5.74173 72.9129 4.25583 70.6782 4.25583H68.9349V11.7555H70.6782C72.9246 11.7555 74.4105 10.2228 74.4105 7.98813Z" fill="white"/>
</g>
<defs>
<clipPath id="clip0_42_16">
<rect width="78.6928" height="15.912" fill="white" transform="translate(0 0.0439453)"/>
</clipPath>
</defs>
</svg>
